<?xml version="1.0" encoding="UTF-8"?>
<svg id="Layer_1" data-name="Layer 1" xmlns="http://www.w3.org/2000/svg" viewBox="0 0 48 48">
  <defs>
    <style>
      .cls-1 {
        fill: none;
      }

      .cls-2 {
        fill: #e37c53;
      }
    </style>
  </defs>
  <g>
    <path class="cls-1" d="M41.4,10.5c-1.2-.4-8.4-.8-17.4-.8s-16.2,.4-17.4,.8c-1.6,.5-2.8,1.2-3.3,4.1-.4,2.4-.6,5.9-.6,9.4s.2,7,.6,9.4c.4,2.9,1.7,3.5,3.3,4.1,1.2,.4,8.4,.8,17.4,.8s16.2-.4,17.4-.8c1.6-.5,2.8-1.2,3.3-4.1,.4-2.4,.6-5.9,.6-9.4s-.2-7-.6-9.4c-.4-2.9-1.7-3.5-3.3-4.1Z"/>
    <polygon class="cls-2" points="19.3 17 19.3 24 19.3 30.9 31.4 24 19.3 17"/>
  </g>
  <path class="cls-2" d="M46.5,14.3c-.6-4-2.7-5-4.5-5.6-1.8-.6-10.5-.9-18-.9s-16.2,.3-18,.9c-1.8,.6-3.9,1.6-4.5,5.6s-.6,8.8-.6,9.7,0,5.7,.6,9.7,2.7,5,4.5,5.6c1.8,.6,10.5,.9,18,.9s16.2-.3,18-.9c1.8-.6,3.9-1.6,4.5-5.6,.6-4,.6-8.8,.6-9.7s0-5.7-.6-9.7Zm-1.8,19.1c-.4,2.9-1.7,3.5-3.3,4.1-1.2,.4-8.4,.8-17.4,.8s-16.2-.4-17.4-.8c-1.6-.5-2.8-1.2-3.3-4.1-.4-2.4-.6-5.9-.6-9.4s.2-7,.6-9.4c.4-2.9,1.7-3.5,3.3-4.1,1.2-.4,8.4-.8,17.4-.8s16.2,.4,17.4,.8c1.6,.5,2.8,1.2,3.3,4.1,.4,2.4,.6,5.9,.6,9.4s-.2,7-.6,9.4Z"/>
</svg>