<?xml version="1.0" encoding="UTF-8"?>
<svg id="Layer_1" data-name="Layer 1" xmlns="http://www.w3.org/2000/svg" viewBox="0 0 48 48">
  <defs>
    <style>
      .cls-1 {
        fill: #e37c53;
      }
    </style>
  </defs>
  <path class="cls-1" d="M33.7,47.1H14.3c-7.4,0-13.4-6-13.4-13.4V14.3C.9,6.9,6.9,.9,14.3,.9h19.5c7.4,0,13.4,6,13.4,13.4v19.5c0,7.4-6,13.4-13.4,13.4ZM14.3,5.5c-4.8,0-8.7,3.9-8.7,8.7v19.5c0,4.8,3.9,8.7,8.7,8.7h19.5c4.8,0,8.7-3.9,8.7-8.7V14.3c0-4.8-3.9-8.7-8.7-8.7H14.3Z"/>
  <path class="cls-1" d="M24,35.7c-6.4,0-11.7-5.2-11.7-11.7s5.2-11.7,11.7-11.7,11.7,5.2,11.7,11.7-5.2,11.7-11.7,11.7Zm0-19.5c-4.3,0-7.8,3.5-7.8,7.8s3.5,7.8,7.8,7.8,7.8-3.5,7.8-7.8-3.5-7.8-7.8-7.8Z"/>
  <circle class="cls-1" cx="35.9" cy="11.7" r="2.7"/>
</svg>