<?xml version="1.0" encoding="UTF-8"?>
<svg id="Layer_1" data-name="Layer 1" xmlns="http://www.w3.org/2000/svg" viewBox="0 0 48 48">
  <defs>
    <style>
      .cls-1 {
        fill: #e37c53;
      }
    </style>
  </defs>
  <path class="cls-1" d="M23.4,16.8C11.9,16.5,4,7.1,4,7.1c0,0-4,7.6,2.8,12.5,0,0-1.9,.2-4-1,0,0-.8,7,7.2,9.3,0,0-.5,.6-3.9,.3,0,0,1.7,6.2,8.6,6.4,0,0-4.3,4.6-13.5,4.1,0,0,14.7,10,30.3-.9,5.3-3.7,11.6-13.8,10.7-23,0,0,2.9-1.8,4.6-4.8,0,0-1.2,.5-2.5,.9-1.1,.3-2.1,.5-2.6,.5,0,0,3.5-2.4,3.9-5.1,0,0-3.8,2.1-5.8,2.2h0c-1.7-1.8-4.2-3-6.9-3-5.2,0-9.5,4.2-9.5,9.5s0,1.4,.2,2h-.1Z"/>
</svg>